<svg width="454" height="134" viewBox="0 0 454 134" fill="none" xmlns="http://www.w3.org/2000/svg">
<path d="M39.3 88.5C31.3667 88.5 24.4667 87.0667 18.6 84.2C12.7333 81.2667 8.23333 77.1333 5.1 71.8C1.96667 66.4667 0.4 60.2667 0.4 53.2C0.4 43.4 2.23333 34.7 5.9 27.1C9.63333 19.5 14.6667 13.6333 21 9.5C27.3333 5.3 34.3667 3.2 42.1 3.2C49.3 3.2 54.7667 5.06666 58.5 8.79999C62.2333 12.4667 64.1 17.3333 64.1 23.4C64.1 27.4667 63.3667 30.7333 61.9 33.2C60.5 35.6667 58.4667 36.9 55.8 36.9C53.9333 36.9 52.4667 36.4667 51.4 35.6C50.3333 34.7333 49.8 33.4667 49.8 31.8C49.8 31.2 49.9333 30.1 50.2 28.5C50.6 26.5 50.8 24.9 50.8 23.7C50.8 17.6333 47.5667 14.6 41.1 14.6C36.7 14.6 32.5 16.0333 28.5 18.9C24.5 21.7667 21.2667 26 18.8 31.6C16.3333 37.1333 15.1 43.7333 15.1 51.4C15.1 59.4 17.3333 65.6 21.8 70C26.2667 74.3333 32.8667 76.5 41.6 76.5C45.9333 76.5 50.3 75.9667 54.7 74.9C59.1667 73.7667 64.1 72.0667 69.5 69.8C70.5 69.4 71.3333 69.2 72 69.2C73.0667 69.2 73.8667 69.6 74.4 70.4C74.9333 71.2 75.2 72.2333 75.2 73.5C75.2 77.5667 73 80.5667 68.6 82.5C63.8667 84.5667 58.9333 86.1 53.8 87.1C48.7333 88.0333 43.9 88.5 39.3 88.5ZM95.2547 88.8C86.388 88.8 79.288 87.1333 73.9547 83.8C68.6214 80.4 65.9547 75.2333 65.9547 68.3C65.9547 64.6333 66.588 61.8333 67.8547 59.9C69.1214 57.9667 70.988 57 73.4547 57C75.2547 57 76.7214 57.4667 77.8547 58.4C78.988 59.3333 79.5547 60.5333 79.5547 62C79.5547 63.3333 79.4547 64.5 79.2547 65.5C79.2547 65.7667 79.188 66.2333 79.0547 66.9C78.988 67.5667 78.9547 68.2667 78.9547 69C78.9547 72 80.4547 74.2333 83.4547 75.7C86.5214 77.1667 90.788 77.9 96.2547 77.9C101.921 77.9 106.355 76.9 109.555 74.9C112.755 72.8333 114.355 69.9667 114.355 66.3C114.355 64.0333 113.621 62.1 112.155 60.5C110.688 58.8333 108.855 57.4667 106.655 56.4C104.455 55.2667 101.355 53.9 97.3547 52.3C92.2214 50.3 88.0214 48.4 84.7547 46.6C81.5547 44.8 78.788 42.3667 76.4547 39.3C74.188 36.1667 73.0547 32.3 73.0547 27.7C73.0547 22.9 74.3214 18.6333 76.8547 14.9C79.4547 11.1667 83.1547 8.26666 87.9547 6.2C92.8214 4.13333 98.5214 3.1 105.055 3.1C109.921 3.1 114.388 3.83333 118.455 5.3C122.521 6.7 125.755 8.86666 128.155 11.8C130.621 14.7333 131.855 18.3333 131.855 22.6C131.855 26.8 131.221 29.9667 129.955 32.1C128.688 34.2333 126.821 35.3 124.355 35.3C122.621 35.3 121.155 34.7667 119.955 33.7C118.821 32.6333 118.255 31.3667 118.255 29.9C118.255 28.6333 118.355 27.4667 118.555 26.4C118.755 24.4 118.855 23.1333 118.855 22.6C118.855 19.8 117.488 17.6667 114.755 16.2C112.021 14.7333 108.621 14 104.555 14C98.8214 14 94.4214 15.0667 91.3547 17.2C88.3547 19.2667 86.8547 22.2 86.8547 26C86.8547 28.5333 87.6214 30.7 89.1547 32.5C90.7547 34.3 92.7214 35.8 95.0547 37C97.388 38.2 100.655 39.6333 104.855 41.3C109.921 43.3667 113.988 45.2333 117.055 46.9C120.121 48.5667 122.721 50.8333 124.855 53.7C127.055 56.5667 128.155 60.1 128.155 64.3C128.155 72.1667 125.155 78.2333 119.155 82.5C113.221 86.7 105.255 88.8 95.2547 88.8ZM164.591 88.8C155.724 88.8 148.624 87.1333 143.291 83.8C137.957 80.4 135.291 75.2333 135.291 68.3C135.291 64.6333 135.924 61.8333 137.191 59.9C138.457 57.9667 140.324 57 142.791 57C144.591 57 146.057 57.4667 147.191 58.4C148.324 59.3333 148.891 60.5333 148.891 62C148.891 63.3333 148.791 64.5 148.591 65.5C148.591 65.7667 148.524 66.2333 148.391 66.9C148.324 67.5667 148.291 68.2667 148.291 69C148.291 72 149.791 74.2333 152.791 75.7C155.857 77.1667 160.124 77.9 165.591 77.9C171.257 77.9 175.691 76.9 178.891 74.9C182.091 72.8333 183.691 69.9667 183.691 66.3C183.691 64.0333 182.957 62.1 181.491 60.5C180.024 58.8333 178.191 57.4667 175.991 56.4C173.791 55.2667 170.691 53.9 166.691 52.3C161.557 50.3 157.357 48.4 154.091 46.6C150.891 44.8 148.124 42.3667 145.791 39.3C143.524 36.1667 142.391 32.3 142.391 27.7C142.391 22.9 143.657 18.6333 146.191 14.9C148.791 11.1667 152.491 8.26666 157.291 6.2C162.157 4.13333 167.857 3.1 174.391 3.1C179.257 3.1 183.724 3.83333 187.791 5.3C191.857 6.7 195.091 8.86666 197.491 11.8C199.957 14.7333 201.191 18.3333 201.191 22.6C201.191 26.8 200.557 29.9667 199.291 32.1C198.024 34.2333 196.157 35.3 193.691 35.3C191.957 35.3 190.491 34.7667 189.291 33.7C188.157 32.6333 187.591 31.3667 187.591 29.9C187.591 28.6333 187.691 27.4667 187.891 26.4C188.091 24.4 188.191 23.1333 188.191 22.6C188.191 19.8 186.824 17.6667 184.091 16.2C181.357 14.7333 177.957 14 173.891 14C168.157 14 163.757 15.0667 160.691 17.2C157.691 19.2667 156.191 22.2 156.191 26C156.191 28.5333 156.957 30.7 158.491 32.5C160.091 34.3 162.057 35.8 164.391 37C166.724 38.2 169.991 39.6333 174.191 41.3C179.257 43.3667 183.324 45.2333 186.391 46.9C189.457 48.5667 192.057 50.8333 194.191 53.7C196.391 56.5667 197.491 60.1 197.491 64.3C197.491 72.1667 194.491 78.2333 188.491 82.5C182.557 86.7 174.591 88.8 164.591 88.8ZM214.88 88.5C211.946 88.5 209.713 87.7 208.18 86.1C206.713 84.5 205.98 82.4 205.98 79.8C205.98 76.8 206.813 74.4 208.48 72.6C210.213 70.8 212.613 69.9 215.68 69.9C218.613 69.9 220.813 70.6333 222.28 72.1C223.813 73.5 224.58 75.6 224.58 78.4C224.58 81.4667 223.713 83.9333 221.98 85.8C220.246 87.6 217.88 88.5 214.88 88.5ZM304.955 5C307.022 5.39999 308.555 6.1 309.555 7.1C310.622 8.1 311.155 9.26666 311.155 10.6C311.155 12.8 310.522 14.4 309.255 15.4C308.055 16.4 306.122 16.8 303.455 16.6C297.455 16.1333 292.755 15.8333 289.355 15.7C286.022 15.5 281.622 15.3667 276.155 15.3C273.689 27.5667 271.422 39.9 269.355 52.3C268.622 56.8333 267.855 62.1 267.055 68.1C266.255 74.0333 265.722 78.8333 265.455 82.5C265.322 84.4333 264.522 85.9333 263.055 87C261.589 88 259.822 88.5 257.755 88.5C255.555 88.5 253.855 87.9667 252.655 86.9C251.455 85.8333 250.855 84.4333 250.855 82.7C250.855 81.1 251.089 78.4667 251.555 74.8C252.089 71.0667 252.689 67.1667 253.355 63.1C254.089 59.0333 254.655 55.5 255.055 52.5C255.789 47.4333 256.622 42.4 257.555 37.4C258.489 32.4 259.422 27.6667 260.355 23.2C260.555 22.2 260.789 21.0667 261.055 19.8C261.322 18.4667 261.622 17 261.955 15.4C255.422 15.6 250.289 16.1333 246.555 17C242.822 17.8667 240.155 19.1 238.555 20.7C237.022 22.2333 236.255 24.2333 236.255 26.7C236.255 28.9667 236.922 31.1333 238.255 33.2C238.522 33.6667 238.655 34.1667 238.655 34.7C238.655 35.9667 237.889 37.1667 236.355 38.3C234.889 39.3667 233.355 39.9 231.755 39.9C230.622 39.9 229.689 39.5667 228.955 38.9C227.622 37.7667 226.522 36.1667 225.655 34.1C224.789 31.9667 224.355 29.5667 224.355 26.9C224.355 21.2333 226.189 16.7 229.855 13.3C233.589 9.83333 239.222 7.3 246.755 5.7C254.355 4.1 264.089 3.29999 275.955 3.29999C283.289 3.29999 289.122 3.43333 293.455 3.69999C297.855 3.96666 301.689 4.4 304.955 5ZM298.209 88.5C294.076 88.5 290.776 87 288.309 84C285.843 81 284.609 77.0667 284.609 72.2C284.609 66.8667 285.843 61.8333 288.309 57.1C290.776 52.3 294.043 48.4667 298.109 45.6C302.243 42.6667 306.609 41.2 311.209 41.2C312.676 41.2 313.643 41.5 314.109 42.1C314.643 42.6333 315.076 43.6333 315.409 45.1C316.809 44.8333 318.276 44.7 319.809 44.7C323.076 44.7 324.709 45.8667 324.709 48.2C324.709 49.6 324.209 52.9333 323.209 58.2C321.676 65.8667 320.909 71.2 320.909 74.2C320.909 75.2 321.143 76 321.609 76.6C322.143 77.2 322.809 77.5 323.609 77.5C324.876 77.5 326.409 76.7 328.209 75.1C330.009 73.4333 332.443 70.7667 335.509 67.1C336.309 66.1667 337.209 65.7 338.209 65.7C339.076 65.7 339.743 66.1 340.209 66.9C340.743 67.7 341.009 68.8 341.009 70.2C341.009 72.8667 340.376 74.9333 339.109 76.4C336.376 79.8 333.476 82.6667 330.409 85C327.343 87.3333 324.376 88.5 321.509 88.5C319.309 88.5 317.276 87.7667 315.409 86.3C313.609 84.7667 312.243 82.7 311.309 80.1C307.843 85.7 303.476 88.5 298.209 88.5ZM301.809 78.4C303.276 78.4 304.676 77.5333 306.009 75.8C307.343 74.0667 308.309 71.7667 308.909 68.9L312.609 50.5C309.809 50.5667 307.209 51.6333 304.809 53.7C302.476 55.7 300.609 58.3667 299.209 61.7C297.809 65.0333 297.109 68.5667 297.109 72.3C297.109 74.3667 297.509 75.9 298.309 76.9C299.176 77.9 300.343 78.4 301.809 78.4ZM351.482 90.7C348.015 90.7 345.349 89.9 343.482 88.3C341.682 86.7 340.782 84.9 340.782 82.9C340.782 81.1667 341.415 79.6667 342.682 78.4C343.949 77.1333 345.815 76.5 348.282 76.5C349.149 76.5 350.149 76.6 351.282 76.8C352.482 76.9333 353.382 77.0333 353.982 77.1C353.915 75.3667 353.515 73.7333 352.782 72.2C352.115 70.6667 351.249 69.2 350.182 67.8C349.115 66.3333 348.115 65.0667 347.182 64C345.115 67.9333 343.049 71.2 340.982 73.8C338.982 76.4 336.782 78.8667 334.382 81.2C333.182 82.4 331.915 83 330.582 83C329.515 83 328.649 82.6333 327.982 81.9C327.315 81.1 326.982 80.1333 326.982 79C326.982 77.6667 327.449 76.4333 328.382 75.3L329.682 73.7C333.349 69.1667 336.115 65.4333 337.982 62.5C339.115 60.5667 340.449 58 341.982 54.8C343.515 51.5333 345.015 48.1667 346.482 44.7C347.749 41.7667 350.382 40.3 354.382 40.3C356.249 40.3 357.549 40.4667 358.282 40.8C359.015 41.1333 359.382 41.6667 359.382 42.4C359.382 42.8 359.249 43.4333 358.982 44.3C358.715 45.1667 358.349 46.0333 357.882 46.9C356.682 49.3 356.082 51.3333 356.082 53C356.082 54 356.415 55.1 357.082 56.3C357.815 57.5 358.915 59 360.382 60.8C362.515 63.6 364.115 66 365.182 68C366.315 69.9333 366.882 72.0667 366.882 74.4C366.882 75.0667 366.815 76 366.682 77.2C369.949 75.9333 373.782 72.5667 378.182 67.1C378.982 66.1667 379.882 65.7 380.882 65.7C381.749 65.7 382.415 66.1 382.882 66.9C383.415 67.7 383.682 68.8 383.682 70.2C383.682 72.7333 383.049 74.8 381.782 76.4C378.449 80.5333 375.249 83.3667 372.182 84.9C369.182 86.3667 365.449 87.1667 360.982 87.3C358.315 89.5667 355.149 90.7 351.482 90.7ZM420.158 65.7C421.024 65.7 421.691 66.1 422.158 66.9C422.691 67.7 422.958 68.8 422.958 70.2C422.958 72.8667 422.324 74.9333 421.058 76.4C418.191 79.9333 415.058 82.8333 411.658 85.1C408.258 87.3667 404.358 88.5 399.958 88.5C386.358 88.5 379.558 78.9333 379.558 59.8C379.558 56.8667 379.658 53.9 379.858 50.9H375.958C373.958 50.9 372.591 50.5333 371.858 49.8C371.191 49.0667 370.858 47.9 370.858 46.3C370.858 42.5667 372.358 40.7 375.358 40.7H381.058C382.191 33.3667 383.924 26.6667 386.258 20.6C388.591 14.5333 391.391 9.69999 394.658 6.09999C397.991 2.5 401.558 0.699997 405.358 0.699997C408.158 0.699997 410.358 1.93333 411.958 4.4C413.558 6.86666 414.358 9.96666 414.358 13.7C414.358 24.0333 410.024 33.0333 401.358 40.7H412.558C413.624 40.7 414.391 40.9333 414.858 41.4C415.324 41.8667 415.558 42.7333 415.558 44C415.558 48.6 411.791 50.9 404.258 50.9H392.058C391.924 54.2333 391.858 56.8333 391.858 58.7C391.858 65.6333 392.658 70.5 394.258 73.3C395.924 76.1 398.524 77.5 402.058 77.5C404.924 77.5 407.458 76.6333 409.658 74.9C411.858 73.1667 414.458 70.5667 417.458 67.1C418.258 66.1667 419.158 65.7 420.158 65.7ZM402.658 10.3C401.658 10.3 400.524 11.5667 399.258 14.1C398.058 16.5667 396.891 20.0333 395.758 24.5C394.691 28.9 393.791 33.8 393.058 39.2C396.991 35.8 399.924 32 401.858 27.8C403.858 23.5333 404.858 19.6667 404.858 16.2C404.858 12.2667 404.124 10.3 402.658 10.3ZM449.816 41.4C451.349 41.4 452.416 41.6 453.016 42C453.616 42.4 453.916 43.0667 453.916 44C453.916 45.6 453.049 51.3 451.316 61.1C449.782 70.5 448.882 76.0667 448.616 77.8C446.149 94.9333 442.749 108.5 438.416 118.5C434.082 128.5 428.316 133.5 421.116 133.5C417.716 133.5 414.949 132.433 412.816 130.3C410.682 128.233 409.616 125.5 409.616 122.1C409.616 118.967 410.316 115.767 411.716 112.5C413.182 109.233 415.849 105.467 419.716 101.2C423.649 97 429.182 92.1667 436.316 86.7L436.616 84.4C437.082 81.9333 437.616 78.4 438.216 73.8C436.882 78.6 435.016 82.2667 432.616 84.8C430.216 87.2667 427.682 88.5 425.016 88.5C422.016 88.5 419.549 87.1333 417.616 84.4C415.749 81.6 414.816 78.1333 414.816 74C414.816 69 415.149 64.4333 415.816 60.3C416.482 56.1 417.582 51.6667 419.116 47C419.782 45 420.716 43.5667 421.916 42.7C423.116 41.8333 425.016 41.4 427.616 41.4C429.082 41.4 430.082 41.6333 430.616 42.1C431.216 42.5667 431.516 43.2667 431.516 44.2C431.516 44.7333 431.149 46.5333 430.416 49.6C429.749 52.0667 429.216 54.3 428.816 56.3C428.282 59.0333 427.816 61.6667 427.416 64.2C427.016 66.6667 426.816 68.7 426.816 70.3C426.816 72.8333 427.516 74.1 428.916 74.1C429.916 74.1 431.149 73.1 432.616 71.1C434.149 69.1 435.749 66.0667 437.416 62C439.149 57.9333 440.816 52.9333 442.416 47C442.949 45 443.749 43.5667 444.816 42.7C445.949 41.8333 447.616 41.4 449.816 41.4ZM422.216 123.8C423.882 123.8 425.749 121.867 427.816 118C429.882 114.133 431.949 107.7 434.016 98.7C428.882 103.033 425.149 106.967 422.816 110.5C420.549 114.1 419.416 117.233 419.416 119.9C419.416 121.033 419.616 121.967 420.016 122.7C420.482 123.433 421.216 123.8 422.216 123.8Z" fill="url(#paint0_linear_6_3)"/>
<defs>
<linearGradient id="paint0_linear_6_3" x1="-6" y1="133" x2="455" y2="133" gradientUnits="userSpaceOnUse">
<stop stop-color="#12C2E9"/>
<stop offset="0.498581" stop-color="#C471ED"/>
<stop offset="1" stop-color="#F64F59"/>
</linearGradient>
</defs>
</svg>
