<svg width="405" height="134" viewBox="0 0 405 134" fill="none" xmlns="http://www.w3.org/2000/svg">
<path d="M81.1 5C83.1667 5.39999 84.7 6.1 85.7 7.1C86.7667 8.1 87.3 9.26666 87.3 10.6C87.3 12.8 86.6667 14.4 85.4 15.4C84.2 16.4 82.2667 16.8 79.6 16.6C73.6 16.1333 68.9 15.8333 65.5 15.7C62.1667 15.5 57.7667 15.3667 52.3 15.3C49.8333 27.5667 47.5667 39.9 45.5 52.3C44.7667 56.8333 44 62.1 43.2 68.1C42.4 74.0333 41.8667 78.8333 41.6 82.5C41.4667 84.4333 40.6667 85.9333 39.2 87C37.7333 88 35.9667 88.5 33.9 88.5C31.7 88.5 30 87.9667 28.8 86.9C27.6 85.8333 27 84.4333 27 82.7C27 81.1 27.2333 78.4667 27.7 74.8C28.2333 71.0667 28.8333 67.1667 29.5 63.1C30.2333 59.0333 30.8 55.5 31.2 52.5C31.9333 47.4333 32.7667 42.4 33.7 37.4C34.6333 32.4 35.5667 27.6667 36.5 23.2C36.7 22.2 36.9333 21.0667 37.2 19.8C37.4667 18.4667 37.7667 17 38.1 15.4C31.5667 15.6 26.4333 16.1333 22.7 17C18.9667 17.8667 16.3 19.1 14.7 20.7C13.1667 22.2333 12.4 24.2333 12.4 26.7C12.4 28.9667 13.0667 31.1333 14.4 33.2C14.6667 33.6667 14.8 34.1667 14.8 34.7C14.8 35.9667 14.0333 37.1667 12.5 38.3C11.0333 39.3667 9.5 39.9 7.9 39.9C6.76667 39.9 5.83333 39.5667 5.1 38.9C3.76667 37.7667 2.66667 36.1667 1.8 34.1C0.933333 31.9667 0.5 29.5667 0.5 26.9C0.5 21.2333 2.33333 16.7 6 13.3C9.73333 9.83333 15.3667 7.3 22.9 5.7C30.5 4.1 40.2333 3.29999 52.1 3.29999C59.4333 3.29999 65.2667 3.43333 69.6 3.69999C74 3.96666 77.8333 4.4 81.1 5ZM74.3539 88.5C70.2206 88.5 66.9206 87 64.4539 84C61.9872 81 60.7539 77.0667 60.7539 72.2C60.7539 66.8667 61.9872 61.8333 64.4539 57.1C66.9206 52.3 70.1872 48.4667 74.2539 45.6C78.3872 42.6667 82.7539 41.2 87.3539 41.2C88.8206 41.2 89.7872 41.5 90.2539 42.1C90.7872 42.6333 91.2206 43.6333 91.5539 45.1C92.9539 44.8333 94.4206 44.7 95.9539 44.7C99.2206 44.7 100.854 45.8667 100.854 48.2C100.854 49.6 100.354 52.9333 99.3539 58.2C97.8206 65.8667 97.0539 71.2 97.0539 74.2C97.0539 75.2 97.2872 76 97.7539 76.6C98.2872 77.2 98.9539 77.5 99.7539 77.5C101.021 77.5 102.554 76.7 104.354 75.1C106.154 73.4333 108.587 70.7667 111.654 67.1C112.454 66.1667 113.354 65.7 114.354 65.7C115.221 65.7 115.887 66.1 116.354 66.9C116.887 67.7 117.154 68.8 117.154 70.2C117.154 72.8667 116.521 74.9333 115.254 76.4C112.521 79.8 109.621 82.6667 106.554 85C103.487 87.3333 100.521 88.5 97.6539 88.5C95.4539 88.5 93.4206 87.7667 91.5539 86.3C89.7539 84.7667 88.3872 82.7 87.4539 80.1C83.9872 85.7 79.6206 88.5 74.3539 88.5ZM77.9539 78.4C79.4206 78.4 80.8206 77.5333 82.1539 75.8C83.4872 74.0667 84.4539 71.7667 85.0539 68.9L88.7539 50.5C85.9539 50.5667 83.3539 51.6333 80.9539 53.7C78.6206 55.7 76.7539 58.3667 75.3539 61.7C73.9539 65.0333 73.2539 68.5667 73.2539 72.3C73.2539 74.3667 73.6539 75.9 74.4539 76.9C75.3206 77.9 76.4872 78.4 77.9539 78.4ZM127.627 90.7C124.16 90.7 121.493 89.9 119.627 88.3C117.827 86.7 116.927 84.9 116.927 82.9C116.927 81.1667 117.56 79.6667 118.827 78.4C120.093 77.1333 121.96 76.5 124.427 76.5C125.293 76.5 126.293 76.6 127.427 76.8C128.627 76.9333 129.527 77.0333 130.127 77.1C130.06 75.3667 129.66 73.7333 128.927 72.2C128.26 70.6667 127.393 69.2 126.327 67.8C125.26 66.3333 124.26 65.0667 123.327 64C121.26 67.9333 119.193 71.2 117.127 73.8C115.127 76.4 112.927 78.8667 110.527 81.2C109.327 82.4 108.06 83 106.727 83C105.66 83 104.793 82.6333 104.127 81.9C103.46 81.1 103.127 80.1333 103.127 79C103.127 77.6667 103.593 76.4333 104.527 75.3L105.827 73.7C109.493 69.1667 112.26 65.4333 114.127 62.5C115.26 60.5667 116.593 58 118.127 54.8C119.66 51.5333 121.16 48.1667 122.627 44.7C123.893 41.7667 126.527 40.3 130.527 40.3C132.393 40.3 133.693 40.4667 134.427 40.8C135.16 41.1333 135.527 41.6667 135.527 42.4C135.527 42.8 135.393 43.4333 135.127 44.3C134.86 45.1667 134.493 46.0333 134.027 46.9C132.827 49.3 132.227 51.3333 132.227 53C132.227 54 132.56 55.1 133.227 56.3C133.96 57.5 135.06 59 136.527 60.8C138.66 63.6 140.26 66 141.327 68C142.46 69.9333 143.027 72.0667 143.027 74.4C143.027 75.0667 142.96 76 142.827 77.2C146.093 75.9333 149.927 72.5667 154.327 67.1C155.127 66.1667 156.027 65.7 157.027 65.7C157.893 65.7 158.56 66.1 159.027 66.9C159.56 67.7 159.827 68.8 159.827 70.2C159.827 72.7333 159.193 74.8 157.927 76.4C154.593 80.5333 151.393 83.3667 148.327 84.9C145.327 86.3667 141.593 87.1667 137.127 87.3C134.46 89.5667 131.293 90.7 127.627 90.7ZM196.302 65.7C197.169 65.7 197.836 66.1 198.302 66.9C198.836 67.7 199.102 68.8 199.102 70.2C199.102 72.8667 198.469 74.9333 197.202 76.4C194.336 79.9333 191.202 82.8333 187.802 85.1C184.402 87.3667 180.502 88.5 176.102 88.5C162.502 88.5 155.702 78.9333 155.702 59.8C155.702 56.8667 155.802 53.9 156.002 50.9H152.102C150.102 50.9 148.736 50.5333 148.002 49.8C147.336 49.0667 147.002 47.9 147.002 46.3C147.002 42.5667 148.502 40.7 151.502 40.7H157.202C158.336 33.3667 160.069 26.6667 162.402 20.6C164.736 14.5333 167.536 9.69999 170.802 6.09999C174.136 2.5 177.702 0.699997 181.502 0.699997C184.302 0.699997 186.502 1.93333 188.102 4.4C189.702 6.86666 190.502 9.96666 190.502 13.7C190.502 24.0333 186.169 33.0333 177.502 40.7H188.702C189.769 40.7 190.536 40.9333 191.002 41.4C191.469 41.8667 191.702 42.7333 191.702 44C191.702 48.6 187.936 50.9 180.402 50.9H168.202C168.069 54.2333 168.002 56.8333 168.002 58.7C168.002 65.6333 168.802 70.5 170.402 73.3C172.069 76.1 174.669 77.5 178.202 77.5C181.069 77.5 183.602 76.6333 185.802 74.9C188.002 73.1667 190.602 70.5667 193.602 67.1C194.402 66.1667 195.302 65.7 196.302 65.7ZM178.802 10.3C177.802 10.3 176.669 11.5667 175.402 14.1C174.202 16.5667 173.036 20.0333 171.902 24.5C170.836 28.9 169.936 33.8 169.202 39.2C173.136 35.8 176.069 32 178.002 27.8C180.002 23.5333 181.002 19.6667 181.002 16.2C181.002 12.2667 180.269 10.3 178.802 10.3ZM225.96 41.4C227.493 41.4 228.56 41.6 229.16 42C229.76 42.4 230.06 43.0667 230.06 44C230.06 45.6 229.193 51.3 227.46 61.1C225.927 70.5 225.027 76.0667 224.76 77.8C222.293 94.9333 218.893 108.5 214.56 118.5C210.227 128.5 204.46 133.5 197.26 133.5C193.86 133.5 191.093 132.433 188.96 130.3C186.827 128.233 185.76 125.5 185.76 122.1C185.76 118.967 186.46 115.767 187.86 112.5C189.327 109.233 191.993 105.467 195.86 101.2C199.793 97 205.327 92.1667 212.46 86.7L212.76 84.4C213.227 81.9333 213.76 78.4 214.36 73.8C213.027 78.6 211.16 82.2667 208.76 84.8C206.36 87.2667 203.827 88.5 201.16 88.5C198.16 88.5 195.693 87.1333 193.76 84.4C191.893 81.6 190.96 78.1333 190.96 74C190.96 69 191.293 64.4333 191.96 60.3C192.627 56.1 193.727 51.6667 195.26 47C195.927 45 196.86 43.5667 198.06 42.7C199.26 41.8333 201.16 41.4 203.76 41.4C205.227 41.4 206.227 41.6333 206.76 42.1C207.36 42.5667 207.66 43.2667 207.66 44.2C207.66 44.7333 207.293 46.5333 206.56 49.6C205.893 52.0667 205.36 54.3 204.96 56.3C204.427 59.0333 203.96 61.6667 203.56 64.2C203.16 66.6667 202.96 68.7 202.96 70.3C202.96 72.8333 203.66 74.1 205.06 74.1C206.06 74.1 207.293 73.1 208.76 71.1C210.293 69.1 211.893 66.0667 213.56 62C215.293 57.9333 216.96 52.9333 218.56 47C219.093 45 219.893 43.5667 220.96 42.7C222.093 41.8333 223.76 41.4 225.96 41.4ZM198.36 123.8C200.027 123.8 201.893 121.867 203.96 118C206.027 114.133 208.093 107.7 210.16 98.7C205.027 103.033 201.293 106.967 198.96 110.5C196.693 114.1 195.56 117.233 195.56 119.9C195.56 121.033 195.76 121.967 196.16 122.7C196.627 123.433 197.36 123.8 198.36 123.8ZM242.782 88.5C239.849 88.5 237.615 87.7 236.082 86.1C234.615 84.5 233.882 82.4 233.882 79.8C233.882 76.8 234.715 74.4 236.382 72.6C238.115 70.8 240.515 69.9 243.582 69.9C246.515 69.9 248.715 70.6333 250.182 72.1C251.715 73.5 252.482 75.6 252.482 78.4C252.482 81.4667 251.615 83.9333 249.882 85.8C248.149 87.6 245.782 88.5 242.782 88.5ZM344.501 65.9C345.367 65.9 346.034 66.3333 346.501 67.2C347.034 68 347.301 69.0333 347.301 70.3C347.301 71.8333 347.067 73.0333 346.601 73.9C346.134 74.7667 345.401 75.5333 344.401 76.2C340.467 78.8 334.201 83.0667 325.601 89C323.001 102.8 319.634 113.667 315.501 121.6C311.367 129.533 306.134 133.5 299.801 133.5C296.401 133.5 293.634 132.433 291.501 130.3C289.367 128.233 288.301 125.5 288.301 122.1C288.301 118.967 289.001 115.8 290.401 112.6C291.801 109.4 294.401 105.7 298.201 101.5C302.067 97.3 307.501 92.5 314.501 87.1L314.801 85.2C309.534 87.4 304.367 88.5 299.301 88.5C291.834 88.5 285.267 87.0667 279.601 84.2C273.934 81.2667 269.534 77.1333 266.401 71.8C263.267 66.4667 261.701 60.2667 261.701 53.2C261.701 43.3333 263.567 34.6333 267.301 27.1C271.034 19.5 276.167 13.6333 282.701 9.5C289.301 5.3 296.667 3.2 304.801 3.2C312.601 3.2 318.434 5.03333 322.301 8.7C326.234 12.3 328.201 17.1 328.201 23.1C328.201 27.0333 327.467 30.2 326.001 32.6C324.601 34.9333 322.567 36.1 319.901 36.1C318.101 36.1 316.634 35.6667 315.501 34.8C314.434 33.9333 313.901 32.7333 313.901 31.2C313.901 30.5333 314.034 29.4 314.301 27.8C314.701 25.9333 314.901 24.4667 314.901 23.4C314.901 20.6 314.034 18.4333 312.301 16.9C310.634 15.3667 307.801 14.6 303.801 14.6C298.934 14.6 294.401 16 290.201 18.8C286.067 21.6 282.734 25.8 280.201 31.4C277.667 36.9333 276.401 43.6 276.401 51.4C276.401 59.4 278.567 65.6 282.901 70C287.301 74.3333 293.634 76.5 301.901 76.5C306.501 76.5 311.301 75.4667 316.301 73.4L317.701 61.2H307.501C305.634 61.2 304.201 60.7667 303.201 59.9C302.201 58.9667 301.701 57.4667 301.701 55.4C301.701 53.5333 302.201 52.0667 303.201 51C304.201 49.9333 305.534 49.4 307.201 49.4H325.901C327.367 49.4 328.567 49.9 329.501 50.9C330.501 51.8333 330.901 53.2 330.701 55C330.501 57.1333 329.834 61.9667 328.701 69.5L327.601 77.1C332.934 73.1 337.801 69.6333 342.201 66.7C343.067 66.1667 343.834 65.9 344.501 65.9ZM300.901 123.8C302.634 123.8 304.534 121.833 306.601 117.9C308.667 113.967 310.601 107.633 312.401 98.9C307.334 103.233 303.667 107.133 301.401 110.6C299.201 114.133 298.101 117.233 298.101 119.9C298.101 122.5 299.034 123.8 300.901 123.8ZM353.181 34.8C350.381 34.8 348.281 34.1667 346.881 32.9C345.481 31.5667 344.781 29.7333 344.781 27.4C344.781 25.0667 345.681 23.1333 347.481 21.6C349.348 20 351.648 19.2 354.381 19.2C356.848 19.2 358.848 19.8 360.381 21C361.915 22.2 362.681 23.9 362.681 26.1C362.681 28.7667 361.815 30.9 360.081 32.5C358.348 34.0333 356.048 34.8 353.181 34.8ZM352.381 88.5C348.048 88.5 344.881 86.9667 342.881 83.9C340.948 80.8333 339.981 76.7667 339.981 71.7C339.981 68.7 340.348 64.8667 341.081 60.2C341.881 55.4667 342.881 51.0667 344.081 47C344.681 44.8667 345.481 43.4 346.481 42.6C347.481 41.8 349.081 41.4 351.281 41.4C354.681 41.4 356.381 42.5333 356.381 44.8C356.381 46.4667 355.748 50.3333 354.481 56.4C352.881 63.7333 352.081 68.7 352.081 71.3C352.081 73.3 352.348 74.8333 352.881 75.9C353.415 76.9667 354.315 77.5 355.581 77.5C356.781 77.5 358.281 76.6667 360.081 75C361.881 73.3333 364.281 70.7 367.281 67.1C368.081 66.1667 368.981 65.7 369.981 65.7C370.848 65.7 371.515 66.1 371.981 66.9C372.515 67.7 372.781 68.8 372.781 70.2C372.781 72.8667 372.148 74.9333 370.881 76.4C364.281 84.4667 358.115 88.5 352.381 88.5ZM381.191 50.9C381.057 54.2333 380.991 56.8333 380.991 58.7C380.991 63.5 381.224 67.2667 381.691 70C382.224 72.6667 383.057 74.6 384.191 75.8C385.391 76.9333 387.024 77.5 389.091 77.5C390.157 77.5 391.424 77.1667 392.891 76.5C394.357 75.8333 395.691 74.9667 396.891 73.9C397.624 73.2333 398.357 72.9 399.091 72.9C399.891 72.9 400.524 73.3667 400.991 74.3C401.524 75.1667 401.791 76.2333 401.791 77.5C401.791 78.7667 401.524 80 400.991 81.2C400.524 82.4 399.791 83.4 398.791 84.2C395.324 87.0667 391.391 88.5 386.991 88.5C380.657 88.5 376.024 85.8667 373.091 80.6C370.157 75.2667 368.691 68.3333 368.691 59.8C368.691 56.8667 368.791 53.9 368.991 50.9H365.091C363.091 50.9 361.724 50.5333 360.991 49.8C360.324 49.0667 359.991 47.9 359.991 46.3C359.991 42.5667 361.491 40.7 364.491 40.7H370.191C371.324 33.3667 373.057 26.6667 375.391 20.6C377.724 14.5333 380.524 9.69999 383.791 6.09999C387.124 2.5 390.691 0.699997 394.491 0.699997C397.291 0.699997 399.491 1.93333 401.091 4.4C402.691 6.86666 403.491 9.96666 403.491 13.7C403.491 24.0333 399.157 33.0333 390.491 40.7H401.691C402.757 40.7 403.524 40.9333 403.991 41.4C404.457 41.8667 404.691 42.7333 404.691 44C404.691 48.6 400.924 50.9 393.391 50.9H381.191ZM391.791 10.3C390.791 10.3 389.657 11.5667 388.391 14.1C387.191 16.5667 386.024 20.0333 384.891 24.5C383.824 28.9 382.924 33.8 382.191 39.2C386.124 35.8 389.057 32 390.991 27.8C392.991 23.5333 393.991 19.6667 393.991 16.2C393.991 12.2667 393.257 10.3 391.791 10.3Z" fill="url(#paint0_linear_28_4)"/>
<defs>
<linearGradient id="paint0_linear_28_4" x1="-3" y1="133" x2="402" y2="133" gradientUnits="userSpaceOnUse">
<stop stop-color="#12C2E9"/>
<stop offset="0.498581" stop-color="#C471ED"/>
<stop offset="1" stop-color="#F64F59"/>
</linearGradient>
</defs>
</svg>
